<?xml version="1.0" encoding="UTF-8"?>
<svg id="_图层_1" data-name="图层 1" xmlns="http://www.w3.org/2000/svg" viewBox="0 0 18.3 21.8">
  <defs>
    <style>
      .cls-1 {
        fill: #78dc77;
      }
    </style>
  </defs>
  <path class="cls-1" d="m9.15,21.8c-2.62,0-4.8-.89-6.54-2.68-1.74-1.78-2.61-4.01-2.61-6.68,0-.85.16-1.73.49-2.65.33-.92.8-1.87,1.43-2.86s1.4-2.02,2.33-3.08,2-2.15,3.21-3.26c.25-.22.52-.37.81-.46s.59-.14.89-.14.6.05.89.14c.29.09.56.25.81.46,1.22,1.12,2.29,2.2,3.21,3.26s1.7,2.08,2.33,3.08,1.1,1.95,1.43,2.86c.33.92.49,1.8.49,2.65,0,2.67-.87,4.89-2.61,6.68-1.74,1.78-3.92,2.68-6.54,2.68Zm.35-4.33c.28-.02.53-.13.74-.33s.31-.43.31-.7c0-.3-.11-.55-.33-.75s-.48-.29-.8-.28c-.78.05-1.44-.12-1.98-.51s-.89-1.01-1.08-1.86c-.03-.22-.14-.41-.31-.59s-.41-.26-.71-.26c-.33,0-.6.11-.8.34s-.27.5-.2.81c.28,1.53.95,2.62,1.99,3.26,1.04.64,2.1.93,3.16.86Z"/>
</svg>